<svg id="visual" viewBox="0 0 900 600" width="900" height="600" xmlns="http://www.w3.org/2000/svg" xmlns:xlink="http://www.w3.org/1999/xlink" version="1.1"><rect x="0" y="0" width="900" height="600" fill="#0c7f8f"></rect><path d="M0 315L16.7 312.7C33.3 310.3 66.7 305.7 100 328.8C133.3 352 166.7 403 200 410.5C233.3 418 266.7 382 300 370.8C333.3 359.7 366.7 373.3 400 390.8C433.3 408.3 466.7 429.7 500 433.7C533.3 437.7 566.7 424.3 600 399.3C633.3 374.3 666.7 337.7 700 338.2C733.3 338.7 766.7 376.3 800 398C833.3 419.7 866.7 425.3 883.3 428.2L900 431L900 601L883.3 601C866.7 601 833.3 601 800 601C766.7 601 733.3 601 700 601C666.7 601 633.3 601 600 601C566.7 601 533.3 601 500 601C466.7 601 433.3 601 400 601C366.7 601 333.3 601 300 601C266.7 601 233.3 601 200 601C166.7 601 133.3 601 100 601C66.7 601 33.3 601 16.7 601L0 601Z" fill="#0c7f8f"></path><path d="M0 408L16.7 398.8C33.3 389.7 66.7 371.3 100 360.3C133.3 349.3 166.7 345.7 200 357C233.3 368.3 266.7 394.7 300 417.7C333.3 440.7 366.7 460.3 400 460.8C433.3 461.3 466.7 442.7 500 424.5C533.3 406.3 566.7 388.7 600 391.8C633.3 395 666.7 419 700 417.3C733.3 415.7 766.7 388.3 800 392.2C833.3 396 866.7 431 883.3 448.5L900 466L900 601L883.3 601C866.7 601 833.3 601 800 601C766.7 601 733.3 601 700 601C666.7 601 633.3 601 600 601C566.7 601 533.3 601 500 601C466.7 601 433.3 601 400 601C366.7 601 333.3 601 300 601C266.7 601 233.3 601 200 601C166.7 601 133.3 601 100 601C66.7 601 33.3 601 16.7 601L0 601Z" fill="#07454c"></path><path d="M0 440L16.7 433.3C33.3 426.7 66.7 413.3 100 409.2C133.3 405 166.7 410 200 421.8C233.3 433.7 266.7 452.3 300 452.8C333.3 453.3 366.7 435.7 400 425.8C433.3 416 466.7 414 500 415C533.3 416 566.7 420 600 427.8C633.3 435.7 666.7 447.3 700 452.8C733.3 458.3 766.7 457.7 800 451.7C833.3 445.7 866.7 434.3 883.3 428.7L900 423L900 601L883.3 601C866.7 601 833.3 601 800 601C766.7 601 733.3 601 700 601C666.7 601 633.3 601 600 601C566.7 601 533.3 601 500 601C466.7 601 433.3 601 400 601C366.7 601 333.3 601 300 601C266.7 601 233.3 601 200 601C166.7 601 133.3 601 100 601C66.7 601 33.3 601 16.7 601L0 601Z" fill="#095c68"></path><path d="M0 441L16.7 443.5C33.3 446 66.7 451 100 463.5C133.3 476 166.7 496 200 506.2C233.3 516.3 266.7 516.7 300 505.7C333.3 494.7 366.7 472.3 400 469.7C433.3 467 466.7 484 500 484.5C533.3 485 566.7 469 600 459C633.3 449 666.7 445 700 453.3C733.3 461.7 766.7 482.3 800 494C833.3 505.7 866.7 508.3 883.3 509.7L900 511L900 601L883.3 601C866.7 601 833.3 601 800 601C766.7 601 733.3 601 700 601C666.7 601 633.3 601 600 601C566.7 601 533.3 601 500 601C466.7 601 433.3 601 400 601C366.7 601 333.3 601 300 601C266.7 601 233.3 601 200 601C166.7 601 133.3 601 100 601C66.7 601 33.3 601 16.7 601L0 601Z" fill="#0e91a5"></path><path d="M0 533L16.7 520.5C33.3 508 66.7 483 100 474.8C133.3 466.7 166.7 475.3 200 486.8C233.3 498.3 266.7 512.7 300 517.8C333.3 523 366.7 519 400 510.3C433.3 501.7 466.7 488.3 500 486.3C533.3 484.3 566.7 493.7 600 492.7C633.3 491.7 666.7 480.3 700 477.8C733.3 475.3 766.7 481.7 800 485.5C833.3 489.3 866.7 490.7 883.3 491.3L900 492L900 601L883.3 601C866.7 601 833.3 601 800 601C766.7 601 733.3 601 700 601C666.7 601 633.3 601 600 601C566.7 601 533.3 601 500 601C466.7 601 433.3 601 400 601C366.7 601 333.3 601 300 601C266.7 601 233.3 601 200 601C166.7 601 133.3 601 100 601C66.7 601 33.3 601 16.7 601L0 601Z" fill="#29a9bd"></path><path d="M0 503L16.7 501.5C33.3 500 66.7 497 100 504.5C133.3 512 166.7 530 200 539.2C233.3 548.3 266.7 548.7 300 541.7C333.3 534.7 366.7 520.3 400 519.8C433.3 519.3 466.7 532.7 500 535.7C533.3 538.7 566.7 531.3 600 522.3C633.3 513.3 666.7 502.7 700 503C733.3 503.3 766.7 514.7 800 523C833.3 531.3 866.7 536.7 883.3 539.3L900 542L900 601L883.3 601C866.7 601 833.3 601 800 601C766.7 601 733.3 601 700 601C666.7 601 633.3 601 600 601C566.7 601 533.3 601 500 601C466.7 601 433.3 601 400 601C366.7 601 333.3 601 300 601C266.7 601 233.3 601 200 601C166.7 601 133.3 601 100 601C66.7 601 33.3 601 16.7 601L0 601Z" fill="#52c3d5"></path><path d="M0 536L16.7 537.8C33.3 539.7 66.7 543.3 100 547C133.3 550.7 166.7 554.3 200 551.7C233.3 549 266.7 540 300 540.8C333.3 541.7 366.7 552.3 400 557.8C433.3 563.3 466.7 563.7 500 561.3C533.3 559 566.7 554 600 555C633.3 556 666.7 563 700 564.8C733.3 566.7 766.7 563.3 800 565.2C833.3 567 866.7 574 883.3 577.5L900 581L900 601L883.3 601C866.7 601 833.3 601 800 601C766.7 601 733.3 601 700 601C666.7 601 633.3 601 600 601C566.7 601 533.3 601 500 601C466.7 601 433.3 601 400 601C366.7 601 333.3 601 300 601C266.7 601 233.3 601 200 601C166.7 601 133.3 601 100 601C66.7 601 33.3 601 16.7 601L0 601Z" fill="#7ddde8"></path></svg>